
<svg xmlns="http://www.w3.org/2000/svg" style="display: none">
  <symbol id="search" width="25px" height="25x" viewBox="0 0 21 21" fill="none" xmlns="http://www.w3.org/2000/svg">
<path d="M20 20L15.514 15.506L20 20ZM18 9.5C18 11.7543 17.1045 13.9163 15.5104 15.5104C13.9163 17.1045 11.7543 18 9.5 18C7.24566 18 5.08365 17.1045 3.48959 15.5104C1.89553 13.9163 1 11.7543 1 9.5C1 7.24566 1.89553 5.08365 3.48959 3.48959C5.08365 1.89553 7.24566 1 9.5 1C11.7543 1 13.9163 1.89553 15.5104 3.48959C17.1045 5.08365 18 7.24566 18 9.5V9.5Z" stroke="white" stroke-width="2" stroke-linecap="round"/>
</symbol>

<svg xmlns="http://www.w3.org/2000/svg" style="display: none;">
  <symbol id="burger" viewBox="0 0 20 15">
    <path d="M0 1.95081C0 1.40081 0.446 0.955811 0.995 0.955811H9.005C9.26889 0.955811 9.52197 1.06064 9.70857 1.24724C9.89517 1.43384 10 1.68692 10 1.95081C10 2.2147 9.89517 2.46778 9.70857 2.65438C9.52197 2.84098 9.26889 2.94581 9.005 2.94581H0.995C0.731109 2.94581 0.478028 2.84098 0.291429 2.65438C0.10483 2.46778 0 2.2147 0 1.95081ZM0 7.95581C0 7.40581 0.446 6.96081 0.995 6.96081H19.005C19.2689 6.96081 19.522 7.06564 19.7086 7.25224C19.8952 7.43884 20 7.69192 20 7.95581C20 8.2197 19.8952 8.47278 19.7086 8.65938C19.522 8.84598 19.2689 8.95081 19.005 8.95081H0.995C0.731109 8.95081 0.478028 8.84598 0.291429 8.65938C0.10483 8.47278 0 8.2197 0 7.95581ZM0.995 12.9658C0.731109 12.9658 0.478028 13.0706 0.291429 13.2572C0.10483 13.4438 0 13.6969 0 13.9608C0 14.2247 0.10483 14.4778 0.291429 14.6644C0.478028 14.851 0.731109 14.9558 0.995 14.9558H13.005C13.2689 14.9558 13.522 14.851 13.7086 14.6644C13.8952 14.4778 14 14.2247 14 13.9608C14 13.6969 13.8952 13.4438 13.7086 13.2572C13.522 13.0706 13.2689 12.9658 13.005 12.9658H0.995Z" />
  </symbol>
</svg>

