<svg style="display:none;" xmlns="http://www.w3.org/2000/svg">
  <symbol id="icon" viewBox="0 0 48 48">
    <path d="M7.68 20.16C7.68 12.0703 7.68 8.02545 9.62147 5.11983C10.462 3.86196 11.542 2.78195 12.7998 1.94147C15.7054 0 19.7503 0 27.84 0C35.9297 0 39.9746 0 42.8802 1.94147C44.138 2.78195 45.218 3.86196 46.0585 5.11983C48 8.02545 48 12.0703 48 20.16C48 28.2497 48 32.2946 46.0585 35.2002C45.218 36.458 44.138 37.538 42.8802 38.3785C39.9746 40.32 35.9297 40.32 27.84 40.32C19.7503 40.32 15.7054 40.32 12.7998 38.3785C11.542 37.538 10.462 36.458 9.62147 35.2002C7.68 32.2946 7.68 28.2497 7.68 20.16Z" fill="#553B33"/>
    <path d="M0 23.04C0 15.7992 0 12.1788 2.24942 9.92942C4.49884 7.68 8.11923 7.68 15.36 7.68H24.96C32.2008 7.68 35.8212 7.68 38.0706 9.92942C40.32 12.1788 40.32 15.7992 40.32 23.04V32.64C40.32 39.8808 40.32 43.5012 38.0706 45.7506C35.8212 48 32.2008 48 24.96 48H15.36C8.11923 48 4.49884 48 2.24942 45.7506C0 43.5012 0 39.8808 0 32.64V23.04Z" fill="#2F241F"/>
  </symbol>

<symbol id="basket" viewBox="0 0 24 24" xmlns="http://www.w3.org/2000/svg">
  <g transform="scale(0.7) translate(5, 5)">
    <path d="M18 6H16C16 3.79 14.21 2 12 2C9.79 2 8 3.79 8 6H6C4.9 6 4 6.9 4 8V20C4 21.1 4.9 22 6 22H18C19.1 22 20 21.1 20 20V8C20 6.9 19.1 6 18 6ZM12 4C13.1 4 14 4.9 14 6H10C10 4.9 10.9 4 12 4ZM18 20H6V8H8V10C8 10.55 8.45 11 9 11C9.55 11 10 10.55 10 10V8H14V10C14 10.55 14.45 11 15 11C15.55 11 16 10.55 16 10V8H18V20Z"
      fill="#E5F1B5" />
  </g>
</symbol>





<svg xmlns="http://www.w3.org/2000/svg" style="display: none">
  <symbol id="search" viewBox="0 0 20 20">
    <path d="M12.5 11H11.71L11.43 10.73C12.63 9.33002 13.25 7.42002 12.91 5.39002C12.44 2.61002 10.12 0.390015 7.32 0.0500152C3.09 -0.469985 -0.47 3.09001 0.05 7.32001C0.39 10.12 2.61 12.44 5.39 12.91C7.42 13.25 9.33 12.63 10.73 11.43L11 11.71V12.5L15.25 16.75C15.66 17.16 16.33 17.16 16.74 16.75C17.15 16.34 17.15 15.67 16.74 15.26L12.5 11ZM6.5 11C4.01 11 2 8.99002 2 6.50002C2 4.01002 4.01 2.00002 6.5 2.00002C8.99 2.00002 11 4.01002 11 6.50002C11 8.99002 8.99 11 6.5 11Z" fill="#553B33"/>
  </symbol>


  <symbol id="search-second" viewBox="0 0 20 20">
    <path d="M12.5 11H11.71L11.43 10.73C12.63 9.33002 13.25 7.42002 12.91 5.39002C12.44 2.61002 10.12 0.390015 7.32 0.0500152C3.09 -0.469985 -0.47 3.09001 0.05 7.32001C0.39 10.12 2.61 12.44 5.39 12.91C7.42 13.25 9.33 12.63 10.73 11.43L11 11.71V12.5L15.25 16.75C15.66 17.16 16.33 17.16 16.74 16.75C17.15 16.34 17.15 15.67 16.74 15.26L12.5 11ZM6.5 11C4.01 11 2 8.99002 2 6.50002C2 4.01002 4.01 2.00002 6.5 2.00002C8.99 2.00002 11 4.01002 11 6.50002C11 8.99002 8.99 11 6.5 11Z" fill="white"/>
  </symbol>
  

  <symbol id="watch" viewBox="0 0 16 20">
    <path d="M8.8 13.9L13.47 10.4C13.74 10.2 13.74 9.8 13.47 9.6L8.8 6.1C8.47 5.85 8 6.09 8 6.5V13.5C8 13.91 8.47 14.15 8.8 13.9ZM10 0C4.48 0 0 4.48 0 10C0 15.52 4.48 20 10 20C15.52 20 20 15.52 20 10C20 4.48 15.52 0 10 0ZM10 18C5.59 18 2 14.41 2 10C2 5.59 5.59 2 10 2C14.41 2 18 5.59 18 10C18 14.41 14.41 18 10 18Z" fill="#553B33"/>
  </symbol>
</svg>

<symbol id="chevron-right" viewBox="0 0 8 12" xmlns="http://www.w3.org/2000/svg">
  <path d="M2.00003 0L0.590027 1.41L5.17003 6L0.590027 10.59L2.00003 12L8.00003 6L2.00003 0Z" fill="white"/>
</symbol>

<symbol id="chevron-blk" viewBox="0 0 8 12" xmlns="http://www.w3.org/2000/svg">
  <path d="M2.00003 0L0.590027 1.41L5.17003 6L0.590027 10.59L2.00003 12L8.00003 6L2.00003 0Z" fill="black"/>
</symbol>

<symbol id="email" width="21" height="16" viewBox="0 0 21 16" fill="black" xmlns="http://www.w3.org/2000/svg">
<path d="M20.5 2C20.5 0.9 19.6 0 18.5 0H2.5C1.4 0 0.5 0.9 0.5 2V14C0.5 15.1 1.4 16 2.5 16H18.5C19.6 16 20.5 15.1 20.5 14V2ZM18.5 2L10.5 6.99L2.5 2H18.5ZM18.5 14H2.5V4L10.5 9L18.5 4V14Z" fill="#2F241F"/>
</symbol>


<symbol id="expertise" viewBox="0 0 40 40">
  <rect width="40" height="40" rx="8" fill="none" fill-opacity="none"/>
  <g clip-path="url(#clip0_4_514)">
    <path d="M22 14V12H18V14H22ZM12 17V26C12 26.55 12.45 27 13 27H27C27.55 27 28 26.55 28 26V17C28 16.45 27.55 16 27 16H13C12.45 16 12 16.45 12 17ZM28 14C29.11 14 30 14.89 30 16V27C30 28.11 29.11 29 28 29H12C10.89 29 10 28.11 10 27L10.01 16C10.01 14.89 10.89 14 12 14H16V12C16 10.89 16.89 10 18 10H22C23.11 10 24 10.89 24 12V14H28Z" fill="#F4F4F4"/>
  </g>
  <defs>
    <clipPath id="clip0_4_514">
      <rect width="24" height="24" fill="white" transform="translate(8 8)"/>
    </clipPath>
  </defs>
</symbol>

<symbol id="gusto" width="106" height="41" viewBox="0 0 106 41"  xmlns="http://www.w3.org/2000/svg">
<path d="M93.4312 6.0228C86.9305 6.0228 81.6406 11.3416 81.6406 17.8802C81.6406 24.4187 86.9305 29.7375 93.4312 29.7375C99.9304 29.7375 105.219 24.4187 105.219 17.8802C105.219 11.3416 99.9304 6.0228 93.4312 6.0228V6.0228ZM93.4312 24.118C90.0124 24.118 87.2279 21.3166 87.2279 17.8802C87.2279 14.4422 90.0124 11.6423 93.4312 11.6423C96.847 11.6423 99.633 14.4422 99.633 17.8802C99.633 21.3182 96.8486 24.118 93.4297 24.118H93.4312ZM58.7121 15.4788L56.6504 14.4437C55.7553 13.9979 55.1941 13.6529 54.9684 13.398C54.7533 13.1721 54.6308 12.8735 54.6253 12.5614C54.6253 12.1614 54.8053 11.824 55.159 11.5614C55.5098 11.2866 56.0084 11.1615 56.6413 11.1615C57.7987 11.1615 59.0811 11.8607 60.4932 13.2697L63.973 9.76916C63.118 8.60348 61.9998 7.65667 60.7097 7.00595C59.4365 6.36465 58.0299 6.03403 56.6047 6.04112C54.4805 6.04112 52.7268 6.66856 51.3605 7.93262C49.9957 9.19667 49.3095 10.7157 49.3095 12.4973C49.3095 15.2605 51.1165 17.5626 54.7427 19.39L56.6413 20.3442C58.2775 21.1731 59.0918 22.0174 59.0918 22.8906C59.0918 23.3638 58.8646 23.773 58.4132 24.1363C57.9618 24.5012 57.3641 24.6737 56.623 24.6737C55.9367 24.6737 55.1499 24.4371 54.2639 23.9562C53.3811 23.483 52.5957 22.8469 51.9491 22.0815L48.4876 25.8736C50.4394 28.4384 53.0425 29.7299 56.3149 29.7299C58.7746 29.7299 60.7372 29.0567 62.1919 27.7193C63.6558 26.3835 64.3878 24.7103 64.3878 22.7089C64.3878 21.2082 63.9822 19.8908 63.177 18.7717C62.3642 17.6527 60.8729 16.5627 58.7121 15.4803V15.4788ZM23.7062 27.1545V6.49453H18.1098V7.87766C16.2241 6.66424 14.0292 6.02028 11.7876 6.0228C5.28839 6.0228 0 11.3416 0 17.8802C0 24.4187 5.28839 29.7375 11.7891 29.7375C14.0038 29.7409 16.1738 29.1134 18.0458 27.9285C18.0458 28.1102 18.0366 28.2735 18.0366 28.3834C18.0366 31.8199 15.2521 34.6213 11.8348 34.6213C10.6729 34.6186 9.53531 34.2873 8.55322 33.6656L5.78551 38.5401C7.61054 39.6546 9.70621 40.2461 11.844 40.25C18.3447 40.25 23.7062 34.9296 23.7062 28.3911C23.7062 28.1376 23.723 27.3911 23.7062 27.1545V27.1545ZM11.7891 24.1165C8.37328 24.1165 5.58727 21.3166 5.58727 17.8802C5.58727 14.4422 8.37176 11.6423 11.7891 11.6423C15.2064 11.6423 17.9909 14.4422 17.9909 17.8802C17.9909 21.3166 15.2064 24.118 11.7891 24.118V24.1165ZM45.9989 6.48689H40.375V17.7596C40.3842 19.361 40.3842 22.1257 39.21 23.3074C38.6488 23.8707 38.0343 24.3806 36.7412 24.3806C35.4389 24.3806 34.8244 23.8707 34.2647 23.3074C33.089 22.1242 33.0982 19.3518 33.1058 17.7596V6.48689H27.4835V17.726C27.4652 20.0434 27.4377 24.3455 30.2588 27.2003C31.9133 28.8735 33.885 29.7284 36.732 29.7284C39.5806 29.7284 41.5507 28.8826 43.2053 27.2003C46.0264 24.3455 45.9989 20.0343 45.9806 17.726L45.9989 6.48537V6.48689ZM77.868 23.1089C77.4166 23.4539 76.3217 24.2188 75.0835 24.0463C74.071 23.9089 73.249 23.1639 73.1225 20.6724V11.3248H79.7314V6.46858H73.1225V0.166626H67.5169V1.4032H67.5078V19.9365C67.5078 22.883 68.2489 29.7284 75.0744 29.7284C78.5283 29.675 80.625 27.7926 81.5034 27.0568L81.6208 26.9652L78.2568 22.8005C78.2477 22.8082 78.0129 22.999 77.868 23.1089V23.1089Z" fill="#F45D48"/>
</symbol>

<symbol id="stripe" width="87" height="36" viewBox="0 0 87 36"  xmlns="http://www.w3.org/2000/svg">
<path fill-rule="evenodd" clip-rule="evenodd" d="M86.7201 18.4683C86.7201 12.3588 83.7609 7.53803 78.1048 7.53803C72.4249 7.53803 68.9884 12.3588 68.9884 18.4205C68.9884 25.6039 73.0454 29.2314 78.8685 29.2314C81.7085 29.2314 83.8563 28.5871 85.4792 27.6802V22.9072C83.8563 23.7186 81.9948 24.2197 79.6322 24.2197C77.3173 24.2197 75.2649 23.4083 75.0024 20.5922H86.6724C86.6724 20.282 86.7201 19.041 86.7201 18.4683ZM74.9308 16.2011C74.9308 13.5043 76.5775 12.3826 78.081 12.3826C79.5367 12.3826 81.088 13.5043 81.088 16.2011H74.9308Z" fill="#635BFF"/>
<path fill-rule="evenodd" clip-rule="evenodd" d="M59.7762 7.53801C57.4375 7.53801 55.934 8.63581 55.0987 9.39949L54.7884 7.91985H49.5381V35.7466L55.5044 34.4817L55.5282 27.7279C56.3874 28.3484 57.6522 29.2314 59.7524 29.2314C64.0242 29.2314 67.9143 25.7948 67.9143 18.2296C67.8904 11.3087 63.9526 7.53801 59.7762 7.53801ZM58.3443 23.9811C56.9363 23.9811 56.101 23.4799 55.5282 22.8594L55.5044 14.0055C56.1249 13.3134 56.984 12.8361 58.3443 12.8361C60.5161 12.8361 62.0196 15.2703 62.0196 18.3966C62.0196 21.5946 60.5399 23.9811 58.3443 23.9811Z" fill="#635BFF"/>
<path fill-rule="evenodd" clip-rule="evenodd" d="M41.3284 6.12992L47.3185 4.8412V-0.00341797L41.3284 1.26143V6.12992Z" fill="#635BFF"/>
<path d="M47.3185 7.94369H41.3284V28.8257H47.3185V7.94369Z" fill="#635BFF"/>
<path fill-rule="evenodd" clip-rule="evenodd" d="M34.9084 9.70969L34.5266 7.94368H29.3717V28.8257H35.338V14.6736C36.746 12.836 39.1325 13.1701 39.8724 13.4327V7.94368C39.1087 7.65729 36.3165 7.13226 34.9084 9.70969Z" fill="#635BFF"/>
<path fill-rule="evenodd" clip-rule="evenodd" d="M22.976 2.76491L17.1529 4.0059L17.1291 23.1219C17.1291 26.6539 19.7781 29.2552 23.3101 29.2552C25.2671 29.2552 26.699 28.8972 27.4865 28.4676V23.623C26.7229 23.9333 22.9522 25.0311 22.9522 21.499V13.0269H27.4865V7.94364H22.9522L22.976 2.76491Z" fill="#635BFF"/>
<path fill-rule="evenodd" clip-rule="evenodd" d="M6.84345 14.0055C6.84345 13.0747 7.60713 12.7168 8.87198 12.7168C10.6857 12.7168 12.9768 13.2657 14.7905 14.2441V8.63582C12.8097 7.84827 10.8528 7.53803 8.87198 7.53803C4.02737 7.53803 0.805573 10.0677 0.805573 14.2919C0.805573 20.8786 9.87432 19.8286 9.87432 22.6685C9.87432 23.7663 8.91972 24.1243 7.58327 24.1243C5.60246 24.1243 3.07276 23.3129 1.06809 22.2151V27.895C3.28755 28.8496 5.53087 29.2553 7.58327 29.2553C12.5472 29.2553 15.9599 26.7972 15.9599 22.5253C15.9361 15.4135 6.84345 16.6784 6.84345 14.0055Z" fill="#635BFF"/>
</symbol>

<symbol id="treehouse" width="179" height="53" viewBox="0 0 179 53"  xmlns="http://www.w3.org/2000/svg">
<g clip-path="url(#clip0_4_524)">
<path d="M55.1715 33.061C54.657 33.1897 54.0137 33.3183 53.3705 33.3183C52.084 33.3183 51.5695 32.5464 51.5695 31.26V25.4709H55.1715C56.0721 25.4709 56.9726 24.8277 56.9726 23.7985C56.9726 22.7693 56.2007 22.1261 55.1715 22.1261H51.5695V20.1964C51.5695 19.0386 50.6689 18.2667 49.6398 18.2667C48.6106 18.2667 47.7101 19.1673 47.7101 20.1964V31.3886C47.7101 34.6048 49.2538 36.9204 52.8559 36.9204C53.8851 36.9204 55.3002 36.7917 56.3294 36.2772C57.2299 35.8912 57.4872 35.248 57.4872 34.6048C57.4872 33.7042 56.5866 32.8037 55.1715 33.061ZM68.0361 21.6115C67.5215 21.4829 66.4924 21.3542 65.5919 21.3542C62.3757 21.3542 60.5747 23.2839 60.5747 26.2428V34.9907C60.5747 36.0199 61.4752 36.9204 62.5044 36.9204C63.5335 36.9204 64.434 36.0199 64.434 34.9907V27.0147C64.434 25.7282 64.9486 25.2136 65.8491 25.2136C66.7497 25.2136 67.2642 25.4709 68.0361 25.4709C69.1939 25.4709 69.8372 24.4417 69.8372 23.6699C69.7085 22.6407 69.1939 21.9975 68.0361 21.6115ZM78.7137 21.3542C75.1116 21.3542 72.5387 23.6699 72.1528 27.4006C72.1528 28.3011 72.0241 29.8449 72.1528 31.0027C72.4101 34.6048 74.983 37.049 78.8424 37.049C80.6434 37.049 82.3158 36.6631 83.345 36.0199C84.1169 35.5053 84.2455 34.9907 84.2455 34.4761C84.2455 33.4469 83.345 32.4178 81.8012 32.9324C80.9007 33.3183 79.8715 33.5756 78.8424 33.5756C77.0413 33.5756 75.6262 32.6751 75.6262 30.874V30.4881H82.959C84.2455 30.4881 84.8887 29.7162 84.8887 28.5584V27.9152C85.0174 23.9272 82.4445 21.3542 78.7137 21.3542ZM81.158 27.9152H75.7549C75.7549 25.9855 76.6554 24.699 78.7137 24.699C80.5148 24.699 81.5439 25.8568 81.4153 27.5292C81.4153 27.7865 81.4153 27.9152 81.158 27.9152ZM94.1512 21.3542C90.5491 21.3542 87.9762 23.6699 87.5903 27.4006C87.5903 28.3011 87.4616 29.8449 87.5903 31.0027C87.8476 34.6048 90.4205 37.049 94.2799 37.049C96.0809 37.049 97.7533 36.6631 98.7825 36.0199C99.5544 35.5053 99.683 34.9907 99.683 34.4761C99.683 33.4469 98.7825 32.4178 97.2387 32.9324C96.3382 33.3183 95.309 33.5756 94.2799 33.5756C92.4788 33.5756 91.0637 32.6751 91.0637 30.874V30.4881H98.3965C99.683 30.4881 100.326 29.7162 100.326 28.5584V27.9152C100.455 23.9272 97.882 21.3542 94.1512 21.3542ZM96.5955 27.9152H91.1924C91.1924 25.9855 92.0929 24.699 94.1512 24.699C95.9523 24.699 96.9814 25.8568 96.8528 27.5292C96.8528 27.7865 96.8528 27.9152 96.5955 27.9152ZM159.117 27.7865L157.059 27.2719C155.773 27.0147 155.387 26.6287 155.387 25.9855C155.387 25.3423 156.03 24.8277 157.445 24.8277C158.217 24.8277 159.117 25.085 159.889 25.4709C160.79 25.9855 161.819 25.8568 162.334 25.2136C162.977 24.5704 162.977 23.4126 162.205 22.6407C161.176 21.8688 159.375 21.3542 157.574 21.3542C154.229 21.3542 151.785 23.0266 151.785 26.1141C151.785 28.5584 153.586 29.8449 155.901 30.4881C157.059 30.7454 156.93 30.7454 157.96 31.0027C159.117 31.26 159.632 31.7746 159.632 32.2891C159.632 33.061 158.989 33.5756 157.445 33.5756C156.159 33.5756 155.001 33.1897 154.1 32.6751C153.2 32.0318 152.171 32.2891 151.656 33.061C151.141 33.8329 151.27 34.8621 152.042 35.3766C153.071 36.2772 154.743 37.049 157.445 37.049C160.79 37.049 163.363 35.248 163.363 32.1605C163.363 29.8449 161.948 28.4298 159.117 27.7865ZM176.999 30.4881C178.286 30.4881 178.929 29.7162 178.929 28.5584V27.9152C178.929 23.9272 176.356 21.3542 172.625 21.3542C169.023 21.3542 166.45 23.6699 166.064 27.4006C166.064 28.3011 165.936 29.8449 166.064 31.0027C166.322 34.6048 168.894 37.049 172.754 37.049C174.555 37.049 176.227 36.6631 177.256 36.0199C178.028 35.5053 178.157 34.9907 178.157 34.4761C178.157 33.4469 177.256 32.4178 175.713 32.9324C174.812 33.3183 173.783 33.5756 172.754 33.5756C170.953 33.5756 169.538 32.6751 169.538 30.874V30.4881H176.999ZM172.625 24.699C174.426 24.699 175.455 25.8568 175.327 27.5292C175.327 27.7865 175.198 27.9152 175.069 27.9152H169.666C169.666 25.9855 170.696 24.699 172.625 24.699ZM125.541 21.3542C121.681 21.3542 118.851 23.7985 118.465 27.1433C118.337 28.3011 118.337 30.1022 118.465 31.26C118.723 34.6048 121.681 37.049 125.541 37.049C129.4 37.049 132.23 34.6048 132.488 31.26C132.616 30.1022 132.616 28.4298 132.488 27.2719C132.23 23.7985 129.4 21.3542 125.541 21.3542ZM128.628 30.6167C128.5 32.2891 127.342 33.3183 125.541 33.3183C123.74 33.3183 122.582 32.1605 122.453 30.6167C122.453 29.8449 122.453 28.5584 122.453 27.7865C122.582 26.1141 123.74 25.085 125.541 25.085C127.342 25.085 128.5 26.2428 128.628 27.7865C128.757 28.5584 128.757 29.8449 128.628 30.6167ZM110.232 21.3542C108.817 21.3542 107.273 21.8688 106.759 22.5121V18.3954C106.759 17.2376 105.987 16.4657 104.957 16.4657C103.928 16.4657 103.156 17.3662 103.156 18.3954V34.9907C103.156 36.0199 104.057 36.9204 105.086 36.9204C106.115 36.9204 106.887 36.0199 106.887 34.9907V26.3714C107.53 25.7282 108.56 25.2136 109.846 25.2136C111.39 25.2136 112.29 26.1141 112.29 27.9152V34.9907C112.29 36.1485 113.062 37.049 114.091 37.049C115.249 37.049 116.021 36.1485 116.021 34.9907V27.6579C115.892 23.5412 113.834 21.3542 110.232 21.3542ZM146.253 21.4829C145.224 21.4829 144.323 22.3834 144.323 23.4126V32.5464C143.68 32.9324 142.779 33.3183 141.622 33.3183C140.078 33.3183 138.92 32.4178 138.92 30.6167V23.4126C138.92 22.2548 138.019 21.3542 136.99 21.3542C135.832 21.3542 135.189 22.2548 135.189 23.4126V30.7454C135.189 34.7334 137.505 36.9204 141.493 36.9204C144.452 36.9204 146.51 35.8912 147.411 35.248C147.925 34.9907 148.054 34.6048 148.054 33.9615V23.4126C148.054 22.3834 147.282 21.4829 146.253 21.4829Z" fill="#3E474F"/>
<path d="M33.559 13.5069C32.1439 12.735 29.9569 14.0215 28.6705 16.3371L26.2262 20.4538C25.3257 22.1262 25.4543 24.1845 26.6122 25.8569L26.7408 25.9856C27.8986 27.5293 29.3137 29.0731 29.8283 29.5876C30.0856 29.8449 30.3429 30.2309 30.4715 30.7455C30.8575 32.1606 30.0856 33.7043 28.5418 34.0903C27.1267 34.4762 25.583 33.7043 25.1971 32.1606C25.0684 31.7746 25.0684 31.3887 25.0684 31.1314C25.197 30.4882 24.9398 29.5877 24.0392 28.5585C23.1387 27.658 21.4663 29.459 20.8231 31.26V31.3887C20.3085 33.1897 19.9226 34.8621 20.0512 34.9908C20.0512 35.1194 20.1799 35.1194 20.1799 35.2481C20.9517 36.7918 20.4372 38.5929 18.8934 39.3647C17.3497 40.1366 15.5486 39.622 14.7767 38.0783C14.0049 36.5345 14.5194 34.7335 16.0632 33.9616C16.1918 33.9616 16.1918 33.833 16.3205 33.833C16.4491 33.833 16.7064 33.0611 17.0924 32.0319C17.3497 31.1314 17.4783 30.7455 17.6069 30.3595C17.7356 29.8449 17.9929 28.5585 17.8642 28.0439C17.7356 27.4007 17.0924 27.4007 16.4491 27.7866C16.0632 28.0439 15.2913 28.6871 15.034 28.9444C14.3908 29.459 13.8762 30.2309 13.6189 30.8741C13.4903 31.1314 13.233 31.5173 12.9757 31.7746C11.8179 32.6752 10.1455 32.5465 9.11632 31.3887C8.2158 30.2309 8.34445 28.5585 9.50226 27.5293C9.8882 27.272 10.2741 27.0147 10.6601 27.0147C11.3033 26.8861 13.6189 25.471 15.034 24.4418C15.2913 24.3132 15.6773 23.9272 15.8059 23.7986C16.1918 23.284 15.8059 22.8981 15.42 22.8981C14.2622 23.0267 12.9757 23.1554 12.7184 23.5413C12.5898 23.6699 12.4611 23.9272 12.2038 24.0559C11.1747 24.8278 9.63091 24.5705 8.85903 23.5413C8.08716 22.5121 8.34445 20.9684 9.37361 20.1965C9.75955 19.8106 10.4028 19.6819 10.7887 19.6819C11.6892 19.6819 14.0049 20.1965 15.8059 19.8106L16.3205 19.6819C18.2502 19.296 20.5658 17.6236 21.4663 15.9512C21.4663 15.9512 22.3668 14.4074 23.396 12.4778C24.5538 10.5481 24.4252 8.36108 23.2674 7.71786L21.0804 6.4314C19.9226 5.78817 18.2502 5.78817 17.0924 6.4314L2.16945 14.922C1.01164 15.5653 0.111115 17.109 0.111115 18.3955V34.8621C0.111115 36.1486 1.01164 37.6923 2.16945 38.3356L17.0924 46.8262C18.2502 47.4694 20.0512 47.4694 21.0804 46.8262L36.0033 38.3356C37.1611 37.6923 38.0616 36.1486 38.0616 34.8621V18.3955C38.0616 17.109 37.1611 15.5653 36.0033 14.922C36.0033 14.922 34.9741 14.2788 33.559 13.5069Z" fill="#5FCF80"/>
</g>
<defs>
<clipPath id="clip0_4_524">
<rect width="178.75" height="52" fill="white" transform="translate(0.111115 0.5)"/>
</clipPath>
</defs>
</symbol>

<symbol id="upwork" width="124" height="53" viewBox="0 0 124 53" xmlns="http://www.w3.org/2000/svg">
<g clip-path="url(#clip0_4_525)">
<path d="M34.3979 34.1742C30.9492 34.1742 28.6662 31.5617 28.0293 30.5498C28.8465 24.1481 31.2378 22.124 34.3979 22.124C37.5223 22.124 39.9496 24.5717 39.9496 28.149C39.9496 31.7264 37.5223 34.1742 34.3979 34.1742ZM34.3979 18.1936C28.7744 18.1936 25.6261 21.7828 24.7249 25.4778C23.7035 23.595 22.9465 21.0767 22.3577 18.7349H14.5831V28.2079C14.5831 31.6441 12.9849 34.1859 9.8607 34.1859C6.73645 34.1859 4.94604 31.6441 4.94604 28.2079L4.98208 18.7349H0.5V28.2079C0.5 30.9734 1.41324 33.4799 3.0835 35.2685C4.80184 37.1161 7.14501 38.081 9.8607 38.081C15.268 38.081 19.0412 34.0212 19.0412 28.2079V21.8416C19.6059 23.9362 20.9518 27.9608 23.5232 31.4912L21.12 44.8946H25.6742L27.2603 35.398C27.777 35.8216 28.3297 36.1982 28.9185 36.5395C30.4446 37.4809 32.1869 38.0105 33.9894 38.0692C33.9894 38.0692 34.2657 38.081 34.41 38.081C39.9856 38.081 44.4195 33.8565 44.4195 28.149C44.4195 22.4417 39.9735 18.1936 34.3979 18.1936Z" fill="#14A800"/>
<path d="M98.7935 20.7599V18.7359H94.3956V37.4818H98.8536V30.1388C98.8536 25.62 99.2742 22.3721 105.463 22.7958V18.5123C102.579 18.3005 100.332 18.8889 98.7935 20.7599Z" fill="#14A800"/>
<path d="M67.8408 18.7363L64.6084 31.8456L61.1597 18.7363H55.4881L52.0273 31.8456L48.807 18.7363H44.2888L49.2396 37.4941H54.5989L58.3239 24.173L62.0128 37.4941H67.3721L72.6113 18.7363H67.8408Z" fill="#14A800"/>
<path d="M82.4287 34.1859C79.2565 34.1859 76.8772 31.7383 76.8772 28.149C76.8772 24.5599 79.2685 22.124 82.4287 22.124C85.553 22.124 87.9804 24.5717 87.9804 28.149C87.9804 31.7264 85.553 34.1859 82.4287 34.1859ZM82.4287 18.1936C76.8171 18.1936 72.4192 22.4535 72.4192 28.149C72.4192 33.8446 76.8171 38.0692 82.4287 38.0692C88.0043 38.0692 92.4384 33.8446 92.4384 28.149C92.4384 22.4535 88.0164 18.1936 82.4287 18.1936Z" fill="#14A800"/>
<path d="M111.856 28.2672H112.889L119.114 37.493H124.149L116.987 27.2668C120.46 25.9371 122.791 22.4656 122.791 18.7353H118.345C118.345 22.7834 115.088 24.3132 111.856 24.3132V11.3334H107.386V37.493H111.844L111.856 28.2672Z" fill="#14A800"/>
</g>
<defs>
<clipPath id="clip0_4_525">
<rect width="123.5" height="52" fill="white" transform="translate(0.5 0.5)"/>
</clipPath>
</defs>
</symbol>




</svg>
